<?xml version="1.0" encoding="UTF-8" standalone="no"?> <svg xmlns="http://www.w3.org/2000/svg" viewBox="0 0 64 64"><g id="Layer_32" data-name="Layer 32"><circle cx="32" cy="32" r="3.49"/><path d="M47.76,28.51A3.49,3.49,0,1,0,51.25,32,3.5,3.5,0,0,0,47.76,28.51Z"/><path d="M16.24,28.51A3.49,3.49,0,1,0,19.73,32,3.5,3.5,0,0,0,16.24,28.51Z"/><path d="M32,3.25A28.75,28.75,0,1,0,60.75,32,28.79,28.79,0,0,0,32,3.25ZM16.24,37a5,5,0,1,1,5-5A5,5,0,0,1,16.24,37ZM32,37a5,5,0,1,1,5-5A5,5,0,0,1,32,37Zm15.76,0a5,5,0,1,1,5-5A5,5,0,0,1,47.76,37Z"/></g></svg>